<?xml version="1.0" standalone="no"?><!DOCTYPE svg PUBLIC "-//W3C//DTD SVG 1.1//EN" "http://www.w3.org/Graphics/SVG/1.1/DTD/svg11.dtd"><svg t="1507958135302" class="icon" style="" viewBox="0 0 1024 1024" version="1.1" xmlns="http://www.w3.org/2000/svg" p-id="14121" xmlns:xlink="http://www.w3.org/1999/xlink" width="50" height="50"><defs><style type="text/css"></style></defs><path d="M587.264602 24.686789c51.982752 0 94.130929 35.324187 94.130929 78.877303s-42.148177 78.877303-94.130929 78.877303c-51.982752 0-94.130929-35.324187-94.130929-78.877303C493.133673 60.010976 535.28185 24.686789 587.264602 24.686789L587.264602 24.686789 587.264602 24.686789z" p-id="14122" fill="#DD5044"></path><path d="M287.009016 616.969032l55.595453-0.200706c65.630733-222.783222 253.892591-228.001568 297.044296-126.243826 57.000392 197.695022-124.437475 411.647197-425.295178 495.742846 78.475892-0.802822 166.786358-31.51078 258.107409-72.856135-40.141121 41.947472-104.567621 60.010976-165.983536 78.275186 100.95492-6.422579 182.441396-26.49314 316.713446-122.831831-40.943944 36.729126-86.102705 68.239906-134.472756 96.338691 193.680909-83.092121 341.801646-223.385339 343.808702-448.577029C827.910623 254.896119 564.98628 160.163073 397.196394 347.220698c5.01764-31.310074 71.049784-76.26813 138.888279-107.77891-119.419835 19.669149-264.931399 164.377891-252.889063 295.840063C300.656997 555.954528 305.273226 565.387691 287.009016 616.969032L287.009016 616.969032z" p-id="14123" fill="#DD5044"></path></svg>