<?xml version="1.0" standalone="no"?><!DOCTYPE svg PUBLIC "-//W3C//DTD SVG 1.1//EN" "http://www.w3.org/Graphics/SVG/1.1/DTD/svg11.dtd"><svg t="1507689112549" class="icon" style="" viewBox="0 0 1024 1024" version="1.1" xmlns="http://www.w3.org/2000/svg" p-id="8033" xmlns:xlink="http://www.w3.org/1999/xlink" width="50" height="50"><defs><style type="text/css"></style></defs><path d="M145.799715 0l4.859991 0c120.041766 19.925961 244.943522 35.477931 363.52729 57.347888l0 206.549597c148.71571-1.943996 239.597532 58.805885 300.833412 146.771713 33.533935 48.599905 53.945895 104.489796 60.749881 163.295681 7.289986 64.151875-3.887992 135.593735-28.187945 190.025629-45.197912 100.601804-124.901756 177.875653-247.373517 201.689606-34.019934 6.317988-69.011865 7.775985-104.003797 3.401993-28.673944-2.915994-61.721879 9.719981-90.881822 16.523968-31.103939 6.803987-61.721879 13.121974-92.33982 19.925961s-59.777883 15.55197-92.33982 18.467964C195.371618 671.650688 172.043664 340.199336 145.799715 0.971998L145.799715 0zM227.447556 66.58187c20.41196 276.047461 40.337921 554.038918 60.749881 818.908401 51.515899-10.20598 102.059801-21.869957 152.603702-32.561936 0.971998-4.859991-0.971998-17.981965 0.971998-22.355956 91.853821 39.365923 198.287613 10.691979 260.009492-37.421927 62.693878-49.085904 110.321785-131.219744 102.5458-238.139535-6.317988-89.909824-55.889891-157.949692-116.639772-199.259611s-160.379687-64.637874-247.373517-29.159943c0-76.78785 0-159.407689 0-232.307546-59.291884-7.775985-117.61177-17.009967-175.931656-25.75795-2.429995 24.299953-2.429995 50.057902-6.803987 75.815852-3.401993-26.729948-7.775985-52.001898-11.663977-78.245847C241.055529 66.58187 227.447556 59.777883 227.447556 66.58187z" p-id="8034" fill="#DD5044"></path><path d="M543.346939 478.223066c52.001898-4.373991 102.5458 37.907926 96.713811 101.573802-4.373991 47.141908-43.739915 83.591837-91.367822 84.077836-65.123873 0.971998-114.209777-71.44186-82.619839-135.107736C481.625059 499.607024 510.785002 480.653061 543.346939 478.223066zM549.178927 628.882772c22.355956-0.485999 22.841955-40.337921 0-39.851922C521.962981 590.002848 528.280968 628.882772 549.178927 628.882772L549.178927 628.882772z" p-id="8035" fill="#DD5044"></path><path d="M538.972947 694.006645c68.525866 5.831989 139.967727-41.795918 134.135738-124.901756-0.971998-15.065971-4.859991-30.131941-10.691979-44.225914 3.401993-1.943996 2.915994 3.887992 3.401993 4.859991 11.177978 18.467964 22.841955 47.141908 20.897959 78.245847C682.828666 674.566682 606.526815 717.334599 538.972947 694.006645z" p-id="8036" fill="#DD5044"></path></svg>